<svg xmlns="http://www.w3.org/2000/svg" width="18.999" height="15.296" viewBox="0 0 18.999 15.296"><defs><style>.a{fill:#32374a;}.b{fill:#008ff7;}</style></defs><g transform="translate(-17497 -14265)"><path class="a" d="M10.038,3.824A3.346,3.346,0,1,0,6.692,7.17a3.346,3.346,0,0,0,3.346-3.346Zm-7.17,0A3.824,3.824,0,1,1,6.692,7.648,3.824,3.824,0,0,1,2.868,3.824ZM.478,14.409a.408.408,0,0,0,.409.409H12.1a1.465,1.465,0,0,0,.2.478H.887A.887.887,0,0,1,0,14.409,5.326,5.326,0,0,1,5.327,9.082H8.057a5.557,5.557,0,0,1,1.031.1,1.311,1.311,0,0,0,.036.5A4.842,4.842,0,0,0,8.057,9.56H5.327A4.85,4.85,0,0,0,.478,14.409Z" transform="translate(17497 14265)"/><path class="b" d="M18.981,10.8l-.481-.277a3.986,3.986,0,0,0,0-.746l.484-.277a.671.671,0,0,0,.306-.787,4.824,4.824,0,0,0-1.069-1.85.671.671,0,0,0-.836-.128L16.9,7.01a3.762,3.762,0,0,0-.647-.373V6.084a.674.674,0,0,0-.53-.661,4.876,4.876,0,0,0-2.132,0,.676.676,0,0,0-.53.661v.553a3.762,3.762,0,0,0-.647.373l-.481-.277a.67.67,0,0,0-.836.128,4.91,4.91,0,0,0-1.069,1.847.681.681,0,0,0,.309.792l.481.277a3.986,3.986,0,0,0,0,.746l-.484.277a.682.682,0,0,0-.306.789,4.824,4.824,0,0,0,1.069,1.85.678.678,0,0,0,.836.128l.481-.277a3.762,3.762,0,0,0,.647.373v.553a.674.674,0,0,0,.53.661,4.936,4.936,0,0,0,2.132,0,.676.676,0,0,0,.53-.661v-.553a3.762,3.762,0,0,0,.647-.373l.481.277a.678.678,0,0,0,.836-.128,4.91,4.91,0,0,0,1.069-1.847A.685.685,0,0,0,18.981,10.8Zm-1.5.21.856.5a3.852,3.852,0,0,1-.664,1.151l-.856-.5a3.336,3.336,0,0,1-1.489.859v.99a3.911,3.911,0,0,1-1.328,0v-.99a3.373,3.373,0,0,1-1.489-.859l-.856.5a3.888,3.888,0,0,1-.664-1.151l.856-.5a3.4,3.4,0,0,1,0-1.719l-.856-.5a3.888,3.888,0,0,1,.664-1.151l.856.5A3.336,3.336,0,0,1,14,7.278v-.99a4.065,4.065,0,0,1,1.328,0v.99a3.362,3.362,0,0,1,1.489.859l.856-.5a3.888,3.888,0,0,1,.664,1.151l-.856.5A3.4,3.4,0,0,1,17.478,11.007ZM14.661,8.269a1.879,1.879,0,1,0,1.879,1.879A1.882,1.882,0,0,0,14.661,8.269Zm0,2.826a.947.947,0,1,1,.947-.947A.949.949,0,0,1,14.661,11.094Z" transform="translate(17496.678 14265.047)"/></g></svg>