<?xml version="1.0" encoding="utf-8"?>
<!-- Generator: Adobe Illustrator 26.3.1, SVG Export Plug-In . SVG Version: 6.00 Build 0)  -->
<svg version="1.1" id="Layer_1" xmlns="http://www.w3.org/2000/svg" xmlns:xlink="http://www.w3.org/1999/xlink" x="0px" y="0px"
	 viewBox="0 0 22.4 22" style="enable-background:new 0 0 22.4 22;" xml:space="preserve">
<style type="text/css">
	.st0{fill-rule:evenodd;clip-rule:evenodd;fill:#231F20;}
	.st1{fill-rule:evenodd;clip-rule:evenodd;fill:#52DD8A;}
	.st2{fill-rule:evenodd;clip-rule:evenodd;fill:#FFFFFF;}
</style>
<g id="Group_5956" transform="translate(-19094.924 -10789)">
	<path id="Path_1841" class="st0" d="M19106.1,10811l-6.9-7.5c-0.4-0.5-0.7-1-1-1.6c-0.2-0.5-0.3-1-0.4-1.5l-0.4-2.6l-2.5-5.1l2.4,1
		l-0.2-3.6c0-0.4,0.1-0.7,0.3-1c0.3-0.2,0.7-0.2,1,0c0,0,0.3,0.2,0.5,0.3c0.2,0.1,0.6,0.5,0.6,0.5l2.3,2.3c0.4,0.3,0.8,0.5,1.2,0.8
		c0.4,0.1,0.9,0.2,1.3,0.2h3.6c0.4,0,0.9-0.1,1.3-0.2c0.4-0.2,0.8-0.5,1.1-0.7l2.4-2.4c0.3-0.3,0.6-0.5,0.9-0.7
		c0.3-0.1,0.6-0.1,0.8-0.1c0.2,0.1,0.3,0.3,0.4,0.5c0,0.2,0.1,0.5,0.1,0.7l-0.2,3.5l2.5-1l-2.5,5.1l-0.4,2.7
		c-0.1,0.6-0.3,1.1-0.5,1.7c-0.2,0.4-0.5,0.9-0.9,1.3L19106.1,10811L19106.1,10811z"/>
	<path id="Path_1842" class="st1" d="M19106.2,10809.4l-6.2-6.8c-0.2-0.2-0.4-0.4-0.5-0.7c-0.1-0.2-0.2-0.4-0.2-0.6l-0.6-3.8
		l-1.3-2.7l1.4,0.7l-0.3-4.9c0,0,0-0.1,0.1-0.2c0.1,0,0.2,0.1,0.2,0.1l2.7,2.6c0.4,0.3,0.8,0.6,1.3,0.8c0.5,0.2,1.1,0.3,1.6,0.3h4.2
		c0.5-0.1,0.9-0.2,1.4-0.3c0.5-0.2,0.9-0.5,1.4-0.8l2.6-2.6c0,0,0.1-0.1,0.2-0.1c0.1,0,0.1,0.1,0.1,0.1l-0.3,4.8l1.4-0.6l-1.3,2.6
		l-0.5,3.4c-0.1,0.3-0.1,0.6-0.2,0.8c-0.1,0.2-0.3,0.5-0.4,0.7L19106.2,10809.4L19106.2,10809.4z"/>
	<path id="Path_1843" class="st2" d="M19106.5,10806.2c-0.1,0.1-0.2,0.2-0.3,0.2c-0.1,0-0.2-0.1-0.3-0.2l-4.7-4.9
		c-0.1-0.1-0.2-0.3-0.3-0.5c0-0.2-0.1-0.4-0.1-0.6l-0.1-0.8l-0.9-2.6l0.8,0.3l-0.1-1.5c0,0,0-0.4,0.2-0.6s0.6,0.1,0.6,0.1l2.8,2.3
		c0.6,0.5,1.1,1,1.6,1.6c0.3,0.6,0.5,1.1,0.6,1.8c0.1-0.5,0.3-1.1,0.5-1.5c0.5-0.6,1-1.2,1.5-1.7l2.6-2.2c0,0,0.4-0.5,0.8-0.4
		c0.4,0.1,0.3,0.7,0.3,0.7l-0.1,1.4l0.8-0.3l-1,2.5l-0.1,0.7c0,0.2-0.1,0.5-0.1,0.7c-0.1,0.2-0.2,0.4-0.4,0.5L19106.5,10806.2
		L19106.5,10806.2z M19106.4,10804.1c-0.1,0.1-0.1,0.2-0.1,0.2s0,0.1-0.1,0.1s-0.1-0.1-0.1-0.1l-0.1-0.2c-0.1-0.1-0.1-0.1-0.2-0.2
		l-0.5-0.4c0,0-0.1-0.1,0-0.1c0,0,0.1-0.1,0.1-0.1h1.5c0.1,0,0.1,0,0.1,0c0.1,0.1,0,0.1,0,0.1l-0.5,0.4
		C19106.5,10804,19106.5,10804,19106.4,10804.1L19106.4,10804.1z"/>
</g>
</svg>
