<svg xmlns="http://www.w3.org/2000/svg" width="125.044" height="29" viewBox="0 0 125.044 29">
  <g id="Group_21781" data-name="Group 21781" transform="translate(-14.924 -14)">
    <g id="Group_19686" data-name="Group 19686" transform="translate(46.175 22.035)">
      <path id="Path_4741" data-name="Path 4741" d="M12.862,60.051H9.729l-.737-2.58H4.57l-.737,2.58H.7L4.754,46.6H8.808ZM5.307,54.892H8.44L6.781,49.364Z" transform="translate(-0.7 -46.6)" fill="#fff"/>
      <path id="Path_4742" data-name="Path 4742" d="M8.2,60.051V46.6h2.948V60.051Z" transform="translate(5.619 -46.6)" fill="#fff"/>
      <path id="Path_4743" data-name="Path 4743" d="M16.191,55.913H14.348v4.238H11.4V46.7h5.528c3.317,0,4.423,1.29,4.423,3.87v1.658c0,1.658-.553,2.764-2.027,3.317l3.317,4.607H18.955ZM18.4,50.754c0-.921-.369-1.474-1.658-1.474h-2.4v4.054h2.4c1.29,0,1.658-.553,1.658-1.474Z" transform="translate(8.317 -46.516)" fill="#fff"/>
      <path id="Path_4744" data-name="Path 4744" d="M21.348,51.207v8.845H18.4V46.6h3.686l4.423,9.213V46.6h2.948V60.051H25.771Z" transform="translate(14.212 -46.6)" fill="#fff"/>
      <path id="Path_4745" data-name="Path 4745" d="M30.575,60.42c-3.317,0-4.975-1.658-4.975-4.054V50.654c0-2.58,1.658-4.054,4.975-4.054a27.929,27.929,0,0,1,4.238.369l-.369,2.58a30.334,30.334,0,0,0-3.87-.369c-1.474,0-1.843.737-1.843,1.843v4.607c0,1.106.369,1.843,1.843,1.843a7.633,7.633,0,0,0,1.843-.184V53.233h2.764V59.5A12.072,12.072,0,0,1,30.575,60.42Z" transform="translate(20.285 -46.6)" fill="#fff"/>
      <path id="Path_4746" data-name="Path 4746" d="M42.419,46.6v9.582c0,2.027-1.29,4.054-5.16,4.054s-5.16-2.027-5.16-4.054V46.6h2.948v9.213c0,1.106.553,1.658,2.027,1.658s2.027-.553,2.027-1.658V46.6Z" transform="translate(25.759 -46.6)" fill="#fff"/>
      <path id="Path_4747" data-name="Path 4747" d="M43.891,55.913H42.048v4.238H39.1V46.7h5.528c3.317,0,4.423,1.29,4.423,3.87v1.658c0,1.658-.553,2.764-2.027,3.317l3.317,4.607H46.655ZM46.1,50.754c0-.921-.369-1.474-1.658-1.474h-2.4v4.054h2.4c1.29,0,1.658-.553,1.658-1.474Z" transform="translate(31.658 -46.516)" fill="#fff"/>
      <path id="Path_4748" data-name="Path 4748" d="M56.319,46.6v9.582c0,2.027-1.29,4.054-5.16,4.054S46,58.209,46,56.182V46.6h2.948v9.213c0,1.106.553,1.658,2.027,1.658S53,56.919,53,55.813V46.6Z" transform="translate(37.474 -46.6)" fill="#fff"/>
    </g>
    <g id="Group_19687" data-name="Group 19687" transform="translate(14.924 14)">
      <path id="Path_4749" data-name="Path 4749" d="M110.029,378.986l-9.05-9.876a20.238,20.238,0,0,1-1.341-2.056,8.873,8.873,0,0,1-.521-1.984l-.539-3.446-3.309-6.752,3.185,1.316-.228-4.682a1.719,1.719,0,0,1,.433-1.317,1.35,1.35,0,0,1,1.294-.054s.424.252.648.425.728.633.728.633l3.041,2.988a9.982,9.982,0,0,0,1.621,1,8.993,8.993,0,0,0,1.772.311h4.714a8.03,8.03,0,0,0,1.75-.311,8.865,8.865,0,0,0,1.478-.978l3.176-3.155a6.409,6.409,0,0,1,1.238-.913,2.1,2.1,0,0,1,1.1-.1.866.866,0,0,1,.511.625,5.167,5.167,0,0,1,.079.944l-.244,4.557,3.245-1.3-3.276,6.691-.545,3.521a15.765,15.765,0,0,1-.655,2.228,11.386,11.386,0,0,1-1.124,1.662l-9.186,10.026Z" transform="translate(-95.27 -349.986)" fill="#231f20" fill-rule="evenodd"/>
      <path id="Path_4750" data-name="Path 4750" d="M116.926,381.137l-8.156-8.965a7.485,7.485,0,0,1-.717-.87,4.554,4.554,0,0,1-.32-.848l-.843-5.01-1.7-3.5,1.826.881-.4-6.4s-.023-.182.079-.242.289.127.289.127l3.508,3.465a9.9,9.9,0,0,0,1.712,1.017,9.035,9.035,0,0,0,2.112.446H119.8a10.944,10.944,0,0,0,1.828-.446,15.092,15.092,0,0,0,1.82-1.081l3.457-3.453s.14-.129.257-.1.12.185.12.185l-.4,6.389,1.855-.829L127,365.395l-.7,4.421a8.2,8.2,0,0,1-.3,1.105,5.74,5.74,0,0,1-.581.9l-8.492,9.318Z" transform="translate(-102.091 -354.227)" fill="#52dd8a" fill-rule="evenodd"/>
      <path id="Path_4751" data-name="Path 4751" d="M124.749,390.1a.623.623,0,0,1-.407.224.65.65,0,0,1-.414-.224l-6.212-6.479a2.878,2.878,0,0,1-.367-.6,4.582,4.582,0,0,1-.112-.79l-.118-1.09-1.241-3.373,1.029.459-.17-1.923s-.053-.581.291-.794.749.11.749.11l3.652,3.035a16.3,16.3,0,0,1,2.1,2.167,8.81,8.81,0,0,1,.782,2.321,8.388,8.388,0,0,1,.712-2.028,19.623,19.623,0,0,1,2.021-2.281l3.477-2.88s.581-.6,1.051-.465.369.872.369.872l-.169,1.838,1.037-.428-1.255,3.345-.077.942a5.178,5.178,0,0,1-.158.965,3.214,3.214,0,0,1-.465.687l-6.1,6.395Zm-.126-2.831c-.078.135-.158.273-.158.273s-.063.082-.125.082-.124-.082-.124-.082l-.178-.273a1,1,0,0,0-.236-.225l-.639-.47s-.1-.075-.053-.165a.149.149,0,0,1,.146-.075h1.993a.234.234,0,0,1,.189.062c.072.079-.045.187-.045.187l-.622.5a.646.646,0,0,0-.149.188Z" transform="translate(-109.436 -367.345)" fill="#fff" fill-rule="evenodd"/>
    </g>
  </g>
</svg>
