<svg xmlns="http://www.w3.org/2000/svg" width="100" height="100" viewBox="0 0 100 100">
  <g id="Group_6076" data-name="Group 6076" transform="translate(23800 5516)">
    <path id="Path_3031" data-name="Path 3031" d="M46,0A46,46,0,1,1,0,46,46,46,0,0,1,46,0Z" transform="translate(-23796 -5512)" fill="#fff"/>
    <g id="Ellipse_1082" data-name="Ellipse 1082" transform="translate(-23800 -5516)" fill="none" stroke="#fff" stroke-width="2">
      <circle cx="50" cy="50" r="50" stroke="none"/>
      <circle cx="50" cy="50" r="49" fill="none"/>
    </g>
    <g id="Group_6075" data-name="Group 6075" transform="translate(-23831 -5850.225)">
      <g id="Group_1987" data-name="Group 1987" transform="translate(-66.859 93.045)">
        <path id="Path_1226" data-name="Path 1226" d="M7.643,54.279H5.855l-.421-1.473H2.909l-.421,1.473H.7L3.014,46.6H5.329ZM3.33,51.334H5.118l-.947-3.156Z" transform="translate(120.159 265.4)" fill="#231f20"/>
        <path id="Path_1227" data-name="Path 1227" d="M8.2,54.279V46.6H9.883v7.679Z" transform="translate(120.548 265.4)" fill="#231f20"/>
        <path id="Path_1228" data-name="Path 1228" d="M14.135,51.96H13.083v2.419H11.4V46.7h3.156c1.894,0,2.525.736,2.525,2.209v.947a1.762,1.762,0,0,1-1.157,1.893l1.894,2.63h-2.1ZM15.4,49.014c0-.526-.21-.842-.947-.842H13.083v2.314h1.368c.736,0,.947-.316.947-.842Z" transform="translate(120.715 265.405)" fill="#231f20"/>
        <path id="Path_1229" data-name="Path 1229" d="M20.083,49.23v5.049H18.4V46.6h2.1l2.525,5.26V46.6h1.683v7.679h-2.1Z" transform="translate(121.077 265.4)" fill="#231f20"/>
        <path id="Path_1230" data-name="Path 1230" d="M28.44,54.489c-1.894,0-2.84-.947-2.84-2.314V48.914c0-1.473.947-2.314,2.84-2.314a15.944,15.944,0,0,1,2.42.21l-.21,1.473a17.318,17.318,0,0,0-2.209-.21c-.842,0-1.052.421-1.052,1.052v2.63c0,.631.21,1.052,1.052,1.052a4.358,4.358,0,0,0,1.052-.105V50.387H31.07v3.577A6.892,6.892,0,0,1,28.44,54.489Z" transform="translate(121.454 265.4)" fill="#231f20"/>
        <path id="Path_1231" data-name="Path 1231" d="M37.991,46.6v5.47c0,1.157-.736,2.314-2.946,2.314S32.1,53.227,32.1,52.07V46.6h1.683v5.26c0,.631.316.947,1.157.947s1.157-.316,1.157-.947V46.6Z" transform="translate(121.79 265.4)" fill="#231f20"/>
        <path id="Path_1232" data-name="Path 1232" d="M41.835,51.96H40.783v2.419H39.1V46.7h3.156c1.894,0,2.525.736,2.525,2.209v.947a1.762,1.762,0,0,1-1.157,1.893l1.894,2.63h-2.1ZM43.1,49.014c0-.526-.21-.842-.947-.842H40.783v2.314h1.368c.736,0,.947-.316.947-.842Z" transform="translate(122.154 265.405)" fill="#231f20"/>
        <path id="Path_1233" data-name="Path 1233" d="M51.891,46.6v5.47c0,1.157-.736,2.314-2.946,2.314S46,53.227,46,52.07V46.6h1.683v5.26c0,.631.316.947,1.157.947S50,52.491,50,51.86V46.6Z" transform="translate(122.513 265.4)" fill="#231f20"/>
      </g>
      <g id="Group_1988" data-name="Group 1988" transform="translate(58 356.225)">
        <path id="Path_1841" data-name="Path 1841" d="M118.663,395.58l-14.345-15.527a31.788,31.788,0,0,1-2.125-3.233,13.858,13.858,0,0,1-.825-3.119l-.854-5.417L95.27,357.669l5.048,2.069-.361-7.361a2.687,2.687,0,0,1,.686-2.07,2.155,2.155,0,0,1,2.052-.086s.671.4,1.028.668c.372.282,1.154,1,1.154,1l4.82,4.7a15.839,15.839,0,0,0,2.57,1.571,14.364,14.364,0,0,0,2.808.489h7.471a12.823,12.823,0,0,0,2.773-.489,14.062,14.062,0,0,0,2.343-1.538l5.035-4.96a10.154,10.154,0,0,1,1.961-1.435,3.354,3.354,0,0,1,1.748-.161,1.366,1.366,0,0,1,.811.982,8.063,8.063,0,0,1,.126,1.484l-.387,7.164,5.143-2.046-5.193,10.52-.864,5.536A24.633,24.633,0,0,1,135,377.2a17.9,17.9,0,0,1-1.782,2.613l-14.56,15.762Z" transform="translate(-95.27 -349.986)" fill="#231f20" fill-rule="evenodd"/>
        <path id="Path_1842" data-name="Path 1842" d="M123.79,395.38,110.864,381.3a11.777,11.777,0,0,1-1.136-1.365,7.11,7.11,0,0,1-.507-1.331l-1.336-7.866-2.692-5.5,2.894,1.384-.636-10.043s-.036-.285.126-.38.458.2.458.2l5.56,5.44a15.718,15.718,0,0,0,2.714,1.6,14.44,14.44,0,0,0,3.347.7h8.693a17.486,17.486,0,0,0,2.9-.7,23.97,23.97,0,0,0,2.884-1.7l5.48-5.421s.221-.2.407-.154.19.291.19.291l-.639,10.031,2.94-1.3-2.748,5.479L138.65,377.6a12.771,12.771,0,0,1-.479,1.735,9,9,0,0,1-.922,1.41L123.79,395.38Z" transform="translate(-100.276 -353.099)" fill="#52dd8a" fill-rule="evenodd"/>
        <path id="Path_1843" data-name="Path 1843" d="M129.938,398.681a.987.987,0,0,1-.646.355,1.03,1.03,0,0,1-.656-.355l-9.846-10.27a4.563,4.563,0,0,1-.582-.955,7.264,7.264,0,0,1-.177-1.252l-.187-1.728-1.967-5.347,1.63.727-.269-3.048s-.083-.92.461-1.259,1.187.174,1.187.174l5.789,4.81A25.84,25.84,0,0,1,128,383.969a13.963,13.963,0,0,1,1.24,3.679,13.3,13.3,0,0,1,1.129-3.214,31.1,31.1,0,0,1,3.2-3.616l5.512-4.565s.921-.948,1.666-.738.586,1.383.586,1.383l-.268,2.913,1.644-.678-1.989,5.3-.122,1.493a8.207,8.207,0,0,1-.251,1.529,5.093,5.093,0,0,1-.737,1.089l-9.673,10.136Zm-.2-4.487c-.123.215-.251.432-.251.432s-.1.13-.2.13-.2-.13-.2-.13l-.283-.432a1.59,1.59,0,0,0-.374-.356l-1.012-.745s-.162-.119-.084-.261a.237.237,0,0,1,.232-.119h3.159a.371.371,0,0,1,.3.1c.114.125-.071.3-.071.3l-.986.787a1.023,1.023,0,0,0-.236.3Z" transform="translate(-105.668 -362.827)" fill="#fff" fill-rule="evenodd"/>
      </g>
    </g>
  </g>
</svg>
