<svg xmlns="http://www.w3.org/2000/svg" width="94" height="22" viewBox="0 0 94 22">
  <g id="Group_5956" data-name="Group 5956" transform="translate(-19094.924 -10789)">
    <path id="Path_1226" data-name="Path 1226" d="M9.925,56.8H7.549L6.99,54.846H3.635L3.076,56.8H.7L3.775,46.6H6.85ZM4.194,52.889H6.57L5.312,48.7Z" transform="translate(19117.141 10748.495)" fill="#231f20"/>
    <path id="Path_1227" data-name="Path 1227" d="M8.2,56.8V46.6h2.236V56.8Z" transform="translate(19120.113 10748.495)" fill="#231f20"/>
    <path id="Path_1228" data-name="Path 1228" d="M15.034,53.688h-1.4V56.9H11.4V46.7h4.193c2.516,0,3.354.978,3.354,2.935v1.258a2.341,2.341,0,0,1-1.537,2.516L19.926,56.9h-2.8Zm1.677-3.913c0-.7-.28-1.118-1.258-1.118H13.636v3.075h1.817c.978,0,1.258-.419,1.258-1.118Z" transform="translate(19121.381 10748.536)" fill="#231f20"/>
    <path id="Path_1229" data-name="Path 1229" d="M20.636,50.094V56.8H18.4V46.6h2.8l3.354,6.988V46.6h2.236V56.8h-2.8Z" transform="translate(19124.154 10748.495)" fill="#231f20"/>
    <path id="Path_1230" data-name="Path 1230" d="M29.374,57.082c-2.516,0-3.774-1.258-3.774-3.075V49.675c0-1.957,1.258-3.075,3.774-3.075a21.184,21.184,0,0,1,3.215.28l-.28,1.957a23.009,23.009,0,0,0-2.935-.28c-1.118,0-1.4.559-1.4,1.4v3.494c0,.839.28,1.4,1.4,1.4a5.789,5.789,0,0,0,1.4-.14V51.631h2.1v4.752A9.157,9.157,0,0,1,29.374,57.082Z" transform="translate(19127.014 10748.497)" fill="#231f20"/>
    <path id="Path_1231" data-name="Path 1231" d="M39.927,46.6v7.267c0,1.537-.978,3.075-3.914,3.075S32.1,55.4,32.1,53.867V46.6h2.236v6.988c0,.839.419,1.258,1.537,1.258s1.537-.419,1.537-1.258V46.6Z" transform="translate(19129.588 10748.495)" fill="#231f20"/>
    <path id="Path_1232" data-name="Path 1232" d="M42.734,53.688h-1.4V56.9H39.1V46.7h4.193c2.516,0,3.354.978,3.354,2.935v1.258a2.341,2.341,0,0,1-1.537,2.516L47.626,56.9h-2.8Zm1.677-3.913c0-.7-.28-1.118-1.258-1.118H41.336v3.075h1.817c.978,0,1.258-.419,1.258-1.118Z" transform="translate(19132.354 10748.536)" fill="#231f20"/>
    <path id="Path_1233" data-name="Path 1233" d="M53.827,46.6v7.267c0,1.537-.978,3.075-3.914,3.075S46,55.4,46,53.867V46.6h2.236v6.988c0,.839.419,1.258,1.537,1.258s1.537-.419,1.537-1.258V46.6Z" transform="translate(19135.098 10748.495)" fill="#231f20"/>
    <path id="Path_1841" data-name="Path 1841" d="M106.464,371.987,99.6,364.494a15.35,15.35,0,0,1-1.017-1.56,6.733,6.733,0,0,1-.395-1.5l-.409-2.614-2.51-5.122,2.415,1-.173-3.552a1.3,1.3,0,0,1,.328-1,1.024,1.024,0,0,1,.982-.041s.321.191.492.322.552.48.552.48l2.307,2.267a7.571,7.571,0,0,0,1.23.758,6.824,6.824,0,0,0,1.344.236h3.575a6.09,6.09,0,0,0,1.327-.236,6.729,6.729,0,0,0,1.121-.742l2.409-2.393a4.863,4.863,0,0,1,.939-.692,1.592,1.592,0,0,1,.836-.077.657.657,0,0,1,.388.474,3.922,3.922,0,0,1,.06.716l-.185,3.457,2.461-.987-2.485,5.076-.413,2.672a11.962,11.962,0,0,1-.5,1.69,8.638,8.638,0,0,1-.853,1.261l-6.967,7.606Z" transform="translate(18999.654 10439.014)" fill="#231f20" fill-rule="evenodd"/>
    <path id="Path_1842" data-name="Path 1842" d="M114.092,375.108l-6.186-6.8a5.682,5.682,0,0,1-.544-.66,3.457,3.457,0,0,1-.243-.643l-.639-3.8-1.288-2.659,1.385.669-.3-4.853s-.017-.138.06-.184.219.1.219.1l2.661,2.628a7.509,7.509,0,0,0,1.3.772,6.851,6.851,0,0,0,1.6.338h4.16a8.3,8.3,0,0,0,1.387-.338,11.448,11.448,0,0,0,1.38-.82l2.622-2.62s.106-.1.195-.074.091.141.091.141l-.306,4.847,1.407-.629-1.315,2.648-.531,3.354a6.221,6.221,0,0,1-.229.838,4.357,4.357,0,0,1-.441.681l-6.441,7.069Z" transform="translate(18992.084 10434.308)" fill="#52dd8a" fill-rule="evenodd"/>
    <path id="Path_1843" data-name="Path 1843" d="M122.606,386.558a.472.472,0,0,1-.309.17.493.493,0,0,1-.314-.17l-4.712-4.914a2.184,2.184,0,0,1-.278-.457,3.476,3.476,0,0,1-.085-.6l-.089-.827-.941-2.559.78.348-.129-1.459s-.04-.44.22-.6.568.083.568.083l2.77,2.3a12.365,12.365,0,0,1,1.589,1.644,6.682,6.682,0,0,1,.593,1.76,6.362,6.362,0,0,1,.54-1.538,14.883,14.883,0,0,1,1.533-1.73l2.638-2.185s.441-.454.8-.353.28.662.28.662l-.128,1.394.787-.324-.952,2.537-.058.714a3.928,3.928,0,0,1-.12.732,2.438,2.438,0,0,1-.353.521l-4.629,4.85Zm-.1-2.147c-.059.1-.12.207-.12.207s-.048.062-.095.062-.094-.062-.094-.062l-.135-.207a.761.761,0,0,0-.179-.17l-.484-.356s-.078-.057-.04-.125a.113.113,0,0,1,.111-.057h1.512a.178.178,0,0,1,.144.047c.055.06-.034.142-.034.142l-.472.377a.49.49,0,0,0-.113.143Z" transform="translate(18983.932 10419.703)" fill="#fff" fill-rule="evenodd"/>
  </g>
</svg>
