<svg xmlns="http://www.w3.org/2000/svg" width="13.5" height="18" viewBox="0 0 13.5 18"><defs><style>.a{fill:#32374a;}.b{fill:#008ff7;}</style></defs><g transform="translate(-17500.25 -14063)"><path class="a" d="M.563,15.75V2.25A1.688,1.688,0,0,1,2.25.563H7.175c.046,0,.091,0,.137.007V4.781A1.406,1.406,0,0,0,8.719,6.188H12.93a.9.9,0,0,1,.007.137V15.75a1.688,1.688,0,0,1-1.687,1.688h-9A1.688,1.688,0,0,1,.563,15.75ZM12.607,5.53a1.023,1.023,0,0,1,.084.095H8.719a.842.842,0,0,1-.844-.844V.805A1.151,1.151,0,0,1,7.97.889ZM2.25,0A2.252,2.252,0,0,0,0,2.25v13.5A2.252,2.252,0,0,0,2.25,18h9a2.252,2.252,0,0,0,2.25-2.25V6.325A1.688,1.688,0,0,0,13,5.133L8.371.5A1.688,1.688,0,0,0,7.179,0ZM3.375,15.75h0Z" transform="translate(17500.25 14063)"/><path class="b" d="M2.5,8.062v7.875a.564.564,0,0,0,.562.563h7.875a.564.564,0,0,0,.562-.563V8.062a.564.564,0,0,0-.562-.563H3.062A.564.564,0,0,0,2.5,8.062Zm7.875,7.312H7.562V13.687h2.812Zm0-2.812H7.562V10.875h2.812ZM3.625,8.625h6.75V9.75H3.625Zm0,2.25H6.437v1.687H3.625Zm0,2.812H6.437v1.688H3.625Z" transform="translate(17500 14062.25)"/></g></svg>