<svg xmlns="http://www.w3.org/2000/svg" width="22" height="17.6" viewBox="0 0 22 17.6"><defs><style>.a{fill:#32374a;}.b{fill:#008ff7;}</style></defs><g transform="translate(-17505 -13635)"><path class="a" d="M11,0a.276.276,0,0,1,.275.275V3.3H15.4a3.3,3.3,0,0,1,3.3,3.3v7.7a3.3,3.3,0,0,1-3.3,3.3H6.6a3.3,3.3,0,0,1-3.3-3.3V6.6A3.3,3.3,0,0,1,6.6,3.3h4.125V.275A.276.276,0,0,1,11,0ZM6.6,3.85A2.749,2.749,0,0,0,3.85,6.6v7.7A2.749,2.749,0,0,0,6.6,17.05h8.8a2.749,2.749,0,0,0,2.75-2.75V6.6A2.749,2.749,0,0,0,15.4,3.85H6.6ZM1.65,7.7H2.2v.55H1.65a1.1,1.1,0,0,0-1.1,1.1v3.3a1.1,1.1,0,0,0,1.1,1.1H2.2v.55H1.65A1.65,1.65,0,0,1,0,12.65V9.35A1.65,1.65,0,0,1,1.65,7.7Zm18.7,6.05a1.1,1.1,0,0,0,1.1-1.1V9.35a1.1,1.1,0,0,0-1.1-1.1H19.8V7.7h.55A1.65,1.65,0,0,1,22,9.35v3.3a1.65,1.65,0,0,1-1.65,1.65H19.8v-.55Z" transform="translate(17505 13635)"/><path class="b" d="M7.65,13.8h1.1a.55.55,0,1,1,0,1.1H7.65a.55.55,0,1,1,0-1.1Zm3.3,0h1.1a.55.55,0,1,1,0,1.1h-1.1a.55.55,0,1,1,0-1.1Zm3.3,0h1.1a.55.55,0,1,1,0,1.1h-1.1a.55.55,0,1,1,0-1.1ZM8.2,8.3A1.1,1.1,0,1,0,9.3,9.4,1.1,1.1,0,0,0,8.2,8.3Zm2.2,1.1A2.2,2.2,0,1,1,8.2,7.2,2.2,2.2,0,0,1,10.4,9.4Zm3.3,0a1.1,1.1,0,1,0,1.1-1.1A1.1,1.1,0,0,0,13.7,9.4Zm1.1,2.2A2.2,2.2,0,1,1,17,9.4,2.2,2.2,0,0,1,14.8,11.6Z" transform="translate(17504.5 13634.399)"/></g></svg>