<svg xmlns="http://www.w3.org/2000/svg" width="18" height="15.75" viewBox="0 0 18 15.75"><defs><style>.a{fill:#32374a;}.b{fill:#008ff7;}</style></defs><g transform="translate(-17498 -13997)"><path class="a" d="M.563,32.281a.281.281,0,0,0-.562,0V45.219A2.53,2.53,0,0,0,2.531,47.75H17.719a.281.281,0,0,0,0-.562H2.531A1.97,1.97,0,0,1,.563,45.219Z" transform="translate(17498 13965)"/><path class="b" d="M15.406,74.25h.563a.282.282,0,0,0,.281-.281V65.531a.282.282,0,0,0-.281-.281h-.562a.282.282,0,0,0-.281.281v8.437A.282.282,0,0,0,15.406,74.25Zm-3.375,0h.563a.282.282,0,0,0,.281-.281V68.906a.282.282,0,0,0-.281-.281h-.562a.282.282,0,0,0-.281.281v5.062A.282.282,0,0,0,12.031,74.25Zm-6.75,0h.562a.282.282,0,0,0,.281-.281V71.156a.282.282,0,0,0-.281-.281H5.281A.282.282,0,0,0,5,71.156v2.812A.282.282,0,0,0,5.281,74.25Zm3.375,0h.562a.282.282,0,0,0,.281-.281V66.656a.282.282,0,0,0-.281-.281H8.656a.282.282,0,0,0-.281.281v7.312A.282.282,0,0,0,8.656,74.25Z" transform="translate(17497.5 13934.563)"/></g></svg>