<svg xmlns="http://www.w3.org/2000/svg" width="18" height="15.75" viewBox="0 0 18 15.75">
  <g id="Group_22022" data-name="Group 22022" transform="translate(-17508.5 -13913)">
    <path id="chart-mixed-thin" d="M2.827,46.678V43.3a.563.563,0,1,0-1.125,0v3.375a.563.563,0,1,0,1.125,0Zm-.563-4.5A1.124,1.124,0,0,1,3.39,43.3v3.375a1.125,1.125,0,0,1-2.25,0V43.3A1.124,1.124,0,0,1,2.265,42.178Zm4.5-2.813a.564.564,0,0,0-.563.563v6.751a.563.563,0,1,0,1.125,0V39.927A.564.564,0,0,0,6.765,39.365Zm-1.125.563a1.125,1.125,0,0,1,2.25,0v6.751a1.125,1.125,0,0,1-2.25,0Zm6.188,6.751v-4.5a.563.563,0,0,0-1.125,0v4.5a.563.563,0,1,0,1.125,0Zm-.563-5.626a1.124,1.124,0,0,1,1.125,1.125v4.5a1.125,1.125,0,0,1-2.25,0v-4.5A1.124,1.124,0,0,1,11.266,41.053Zm4.5-1.688a.564.564,0,0,0-.563.563v6.751a.563.563,0,1,0,1.125,0V39.927A.564.564,0,0,0,15.766,39.365Zm-1.125.563a1.125,1.125,0,0,1,2.25,0v6.751a1.125,1.125,0,0,1-2.25,0Z" transform="translate(17508.484 13880.946)" fill="#b7b2b7"/>
    <path id="analytics-light" d="M15.713,2.772A1.5,1.5,0,1,0,15,1.5a1.481,1.481,0,0,0,.088.487l-2.8,2.241A1.478,1.478,0,0,0,11.5,4a1.5,1.5,0,0,0-.788.228l-2.8-2.241A1.481,1.481,0,0,0,8,1.5a1.5,1.5,0,1,0-2.85.644L2.144,5.15A1.5,1.5,0,1,0,3,6.5a1.488,1.488,0,0,0-.15-.644L5.856,2.85a1.466,1.466,0,0,0,1.431-.078l2.8,2.241A1.485,1.485,0,0,0,10,5.5a1.5,1.5,0,1,0,2.912-.491l2.8-2.241ZM16.5,1a.5.5,0,1,1-.5.5A.5.5,0,0,1,16.5,1ZM1.5,7A.5.5,0,1,1,2,6.5.5.5,0,0,1,1.5,7Zm5-5A.5.5,0,1,1,7,1.5.5.5,0,0,1,6.5,2Zm5,4a.5.5,0,1,1,.5-.5A.5.5,0,0,1,11.5,6Z" transform="translate(17508.5 13913)" fill="#ebdab2"/>
  </g>
</svg>
