<svg xmlns="http://www.w3.org/2000/svg" width="18" height="14.626" viewBox="0 0 18 14.626">
  <g id="Group_22013" data-name="Group 22013" transform="translate(-17498 -13871.719)">
    <path id="line-columns-thin" d="M10.125,60.781a.282.282,0,0,0,.281.281h7.313a.281.281,0,0,0,0-.562H10.406A.282.282,0,0,0,10.125,60.781ZM10.406,56a.281.281,0,0,0,0,.563h7.313a.281.281,0,0,0,0-.562Zm-.281,9.281a.282.282,0,0,0,.281.281h7.313a.281.281,0,0,0,0-.562H10.406A.282.282,0,0,0,10.125,65.281Zm.281,4.219a.281.281,0,0,0,0,.563h7.313a.281.281,0,0,0,0-.562Z" transform="translate(17498 13816)" fill="#b7b2b7"/>
    <path id="line-columns-light" d="M7.594,61.5H.281A.281.281,0,0,0,0,61.782v.563a.281.281,0,0,0,.281.281H7.594a.281.281,0,0,0,.281-.281v-.563A.281.281,0,0,0,7.594,61.5Zm0-4.5H.281A.281.281,0,0,0,0,57.282v.563a.281.281,0,0,0,.281.281H7.594a.281.281,0,0,0,.281-.281v-.563A.281.281,0,0,0,7.594,57Zm0-9H.281A.281.281,0,0,0,0,48.281v.563a.281.281,0,0,0,.281.281H7.594a.281.281,0,0,0,.281-.281v-.563A.281.281,0,0,0,7.594,48Zm0,4.5H.281A.281.281,0,0,0,0,52.781v.563a.281.281,0,0,0,.281.281H7.594a.281.281,0,0,0,.281-.281v-.563A.281.281,0,0,0,7.594,52.5Z" transform="translate(17498 13823.719)" fill="#ebdab2"/>
  </g>
</svg>
