<svg xmlns="http://www.w3.org/2000/svg" width="18.001" height="15.002" viewBox="0 0 18.001 15.002"><defs><style>.a{fill:#32374a;}.b{fill:#008ff7;}</style></defs><g transform="translate(-17508.648 -13594.295)"><path class="a" d="M21.907,49.475h12a.3.3,0,0,1,0,.6h-12a.3.3,0,0,1,0-.6Zm0,6h12a.3.3,0,0,1,0,.6h-12a.3.3,0,0,1,0-.6Zm0,6h12a.3.3,0,0,1,0,.6h-12a.3.3,0,0,1,0-.6Z" transform="translate(17492.441 13546.02)"/><path class="b" d="M26.4,56H24.6a.6.6,0,0,0-.6.6v1.8a.6.6,0,0,0,.6.6h1.8a.6.6,0,0,0,.6-.6V56.6A.6.6,0,0,0,26.4,56Zm0,6H24.6a.6.6,0,0,0-.6.6v1.8a.6.6,0,0,0,.6.6h1.8a.6.6,0,0,0,.6-.6V62.6A.6.6,0,0,0,26.4,62Zm0,6H24.6a.6.6,0,0,0-.6.6v1.8a.6.6,0,0,0,.6.6h1.8a.6.6,0,0,0,.6-.6V68.6A.6.6,0,0,0,26.4,68Z" transform="translate(17484.648 13538.295)"/></g></svg>