<svg xmlns="http://www.w3.org/2000/svg" width="336.5" height="237.211" viewBox="0 0 336.5 237.211"><g transform="translate(-6284 10936)"><path d="M0,0H213.071" transform="translate(6346.334 -10936) rotate(90)" fill="none" stroke="#e5e7eb" stroke-width="1"/><path d="M0,0H213.071" transform="translate(6364.578 -10936) rotate(90)" fill="none" stroke="#e5e7eb" stroke-width="1"/><path d="M0,0H213.071" transform="translate(6382.822 -10936) rotate(90)" fill="none" stroke="#e5e7eb" stroke-width="1"/><path d="M0,0H213.071" transform="translate(6401.065 -10936) rotate(90)" fill="none" stroke="#e5e7eb" stroke-width="1"/><path d="M0,0H213.071" transform="translate(6419.312 -10936) rotate(90)" fill="none" stroke="#e5e7eb" stroke-width="1"/><path d="M0,0H213.071" transform="translate(6437.556 -10936) rotate(90)" fill="none" stroke="#e5e7eb" stroke-width="1"/><path d="M0,0H213.071" transform="translate(6455.8 -10936) rotate(90)" fill="none" stroke="#e5e7eb" stroke-width="1"/><path d="M0,0H213.071" transform="translate(6474.043 -10936) rotate(90)" fill="none" stroke="#e5e7eb" stroke-width="1"/><path d="M0,0H213.071" transform="translate(6492.289 -10935.76) rotate(90)" fill="none" stroke="#e5e7eb" stroke-width="1"/><rect width="24.326" height="54.805" transform="translate(6401.065 -10928.93) rotate(90)" fill="#d8669b"/><rect width="24.326" height="145.954" transform="translate(6492.216 -10894.486) rotate(90)" fill="#d8669b"/><rect width="24.326" height="146.028" transform="translate(6492.289 -10860.045) rotate(90)" fill="#d8669b"/><rect width="24.326" height="18.716" transform="translate(6364.978 -10825.604) rotate(90)" fill="#d8669b"/><rect width="24.326" height="54.805" transform="translate(6401.065 -10791.162) rotate(90)" fill="#d8669b"/><rect width="24.326" height="73.05" transform="translate(6419.312 -10756.719) rotate(90)" fill="#d8669b"/><text transform="translate(6333.139 -10741.648)" fill="#404756" font-size="9" font-family="Poppins-Regular, Poppins"><tspan x="-37.107" y="0">SCL-MIA</tspan></text><text transform="translate(6333.174 -10776.092)" fill="#404756" font-size="9" font-family="Poppins-Regular, Poppins"><tspan x="-34.353" y="0">LIM-LAX</tspan></text><text transform="translate(6333.093 -10810.535)" fill="#404756" font-size="9" font-family="Poppins-Regular, Poppins"><tspan x="-41.256" y="0">MAD-SCL</tspan></text><text transform="translate(6333.115 -10844.977)" fill="#404756" font-size="9" font-family="Poppins-Regular, Poppins"><tspan x="-38.853" y="0">UIO-NYC</tspan></text><text transform="translate(6333 -10879.416)" fill="#404756" font-size="9" font-family="Poppins-Regular, Poppins"><tspan x="-48.771" y="0">MAD-WAW</tspan></text><text transform="translate(6333 -10914)" fill="#404756" font-size="9" font-family="Poppins-Regular, Poppins"><tspan x="-43.56" y="0">SAO-MAD</tspan></text><path d="M0,0H213.071" transform="translate(6510.533 -10936) rotate(90)" fill="none" stroke="#e5e7eb" stroke-width="1"/><path d="M0,0H213.071" transform="translate(6528.776 -10936) rotate(90)" fill="none" stroke="#e5e7eb" stroke-width="1"/><path d="M0,0H213.071" transform="translate(6547.021 -10936) rotate(90)" fill="none" stroke="#e5e7eb" stroke-width="1"/><path d="M0,0H213.071" transform="translate(6565.267 -10936) rotate(90)" fill="none" stroke="#e5e7eb" stroke-width="1"/><path d="M0,0H213.071" transform="translate(6583.511 -10935.76) rotate(90)" fill="none" stroke="#e5e7eb" stroke-width="1"/><path d="M0,0H213.071" transform="translate(6601.756 -10936) rotate(90)" fill="none" stroke="#e5e7eb" stroke-width="1"/><path d="M0,0H213.071" transform="translate(6620 -10936) rotate(90)" fill="none" stroke="#e5e7eb" stroke-width="1"/><rect width="24.326" height="182.445" transform="translate(6583.511 -10928.93) rotate(90)" fill="#ae5bd1"/><rect width="24.326" height="36.489" transform="translate(6619.998 -10928.93) rotate(90)" fill="#7a66d8"/><rect width="24.326" height="18.316" transform="translate(6510.531 -10894.486) rotate(90)" fill="#ae5bd1"/><rect width="24.326" height="18.245" transform="translate(6528.776 -10894.486) rotate(90)" fill="#7a66d8"/><rect width="24.326" height="18.245" transform="translate(6547.021 -10894.486) rotate(90)" fill="#6697d8"/><rect width="24.326" height="18.245" transform="translate(6510.533 -10860.045) rotate(90)" fill="#ae5bd1"/><rect width="24.326" height="145.556" transform="translate(6510.533 -10825.604) rotate(90)" fill="#ae5bd1"/><rect width="24.326" height="145.955" transform="translate(6547.021 -10791.162) rotate(90)" fill="#ae5bd1"/><rect width="24.326" height="18.245" transform="translate(6565.267 -10894.486) rotate(90)" fill="#66c5d8"/><rect width="24.326" height="18.444" transform="translate(6437.755 -10756.719) rotate(90)" fill="#ae5bd1"/><text transform="translate(6398.565 -10913.859)" fill="#fff" font-size="9" font-family="Poppins-Regular, Poppins"><tspan x="-5.301" y="0">3</tspan></text><text transform="translate(6580.891 -10913.859)" fill="#fff" font-size="9" font-family="Poppins-Regular, Poppins"><tspan x="-8.532" y="0">10</tspan></text><text transform="translate(6618.438 -10913.859)" fill="#fff" font-size="9" font-family="Poppins-Regular, Poppins"><tspan x="-5.175" y="0">2</tspan></text><text transform="translate(6490.196 -10879.393)" fill="#fff" font-size="9" font-family="Poppins-Regular, Poppins"><tspan x="-5.679" y="0">8</tspan></text><text transform="translate(6508.475 -10879.393)" fill="#fff" font-size="9" font-family="Poppins-Regular, Poppins"><tspan x="-2.88" y="0">1</tspan></text><text transform="translate(6526.719 -10879.393)" fill="#fff" font-size="9" font-family="Poppins-Regular, Poppins"><tspan x="-2.88" y="0">1</tspan></text><text transform="translate(6544.963 -10879.393)" fill="#fff" font-size="9" font-family="Poppins-Regular, Poppins"><tspan x="-2.88" y="0">1</tspan></text><text transform="translate(6563.209 -10879.393)" fill="#fff" font-size="9" font-family="Poppins-Regular, Poppins"><tspan x="-2.88" y="0">1</tspan></text><text transform="translate(6490.196 -10844.977)" fill="#fff" font-size="9" font-family="Poppins-Regular, Poppins"><tspan x="-5.679" y="0">8</tspan></text><text transform="translate(6508.475 -10844.977)" fill="#fff" font-size="9" font-family="Poppins-Regular, Poppins"><tspan x="-2.88" y="0">1</tspan></text><text transform="translate(6508.44 -10810.535)" fill="#fff" font-size="9" font-family="Poppins-Regular, Poppins"><tspan x="-5.679" y="0">8</tspan></text><text transform="translate(6362.521 -10810.535)" fill="#fff" font-size="9" font-family="Poppins-Regular, Poppins"><tspan x="-2.88" y="0">1</tspan></text><text transform="translate(6398.984 -10776.092)" fill="#fff" font-size="9" font-family="Poppins-Regular, Poppins"><tspan x="-5.301" y="0">3</tspan></text><text transform="translate(6544.928 -10776.092)" fill="#fff" font-size="9" font-family="Poppins-Regular, Poppins"><tspan x="-5.679" y="0">8</tspan></text><text transform="translate(6417.219 -10741.648)" fill="#fff" font-size="9" font-family="Poppins-Regular, Poppins"><tspan x="-5.661" y="0">4</tspan></text><text transform="translate(6435.498 -10741.648)" fill="#fff" font-size="9" font-family="Poppins-Regular, Poppins"><tspan x="-2.88" y="0">1</tspan></text><rect width="16.185" height="8.093" transform="translate(6346.261 -10708.766)" fill="#d8669b"/><rect width="16.185" height="8.093" transform="translate(6382.678 -10708.766)" fill="#ae5bd1"/><rect width="16.185" height="8.093" transform="translate(6419.095 -10708.766)" fill="#7a66d8"/><rect width="16.185" height="8.093" transform="translate(6455.511 -10708.766)" fill="#6697d8"/><text transform="translate(6372.492 -10701.789)" fill="#404756" font-size="9" font-family="Poppins-Regular, Poppins"><tspan x="-2.214" y="0">I</tspan></text><text transform="translate(6408.909 -10701.789)" fill="#404756" font-size="9" font-family="Poppins-Regular, Poppins"><tspan x="-5.472" y="0">R</tspan></text><text transform="translate(6445.314 -10701.789)" fill="#404756" font-size="9" font-family="Poppins-Regular, Poppins"><tspan x="-5.589" y="0">X</tspan></text><text transform="translate(6481.742 -10701.789)" fill="#404756" font-size="9" font-family="Poppins-Regular, Poppins"><tspan x="-6.327" y="0">N</tspan></text></g></svg>