<svg xmlns="http://www.w3.org/2000/svg" width="335.773" height="198.318" viewBox="0 0 335.773 198.318"><g transform="translate(-6283 11220)"><path d="M84.106,11158.881H404.078" transform="translate(6214.467 -22233.195)" fill="none" stroke="#e5e7eb" stroke-width="1"/><path d="M84.106,11158.881H404.078" transform="translate(6214.467 -22250.578)" fill="none" stroke="#e5e7eb" stroke-width="1"/><path d="M84.106,11158.881H404.078" transform="translate(6214.467 -22267.969)" fill="none" stroke="#e5e7eb" stroke-width="1"/><path d="M84.106,11158.881H404.078" transform="translate(6214.467 -22285.352)" fill="none" stroke="#e5e7eb" stroke-width="1"/><path d="M84.106,11158.881H404.078" transform="translate(6214.467 -22302.734)" fill="none" stroke="#e5e7eb" stroke-width="1"/><path d="M84.106,11158.881H404.078" transform="translate(6214.467 -22320.117)" fill="none" stroke="#e5e7eb" stroke-width="1"/><path d="M84.106,11158.881H404.078" transform="translate(6214.467 -22337.5)" fill="none" stroke="#e5e7eb" stroke-width="1"/><path d="M84.106,11158.881H404.078" transform="translate(6214.467 -22354.883)" fill="none" stroke="#e5e7eb" stroke-width="1"/><path d="M84.106,11158.881H404.078" transform="translate(6214.695 -22372.27)" fill="none" stroke="#e5e7eb" stroke-width="1"/><path d="M96.313,11057.7v-139.072" transform="translate(6209.333 -22132.016)" fill="none" stroke="#e5e7eb" stroke-width="1"/><path d="M96.313,11057.7v-139.072" transform="translate(6232.511 -22132.016)" fill="none" stroke="#e5e7eb" stroke-width="1"/><path d="M96.313,11057.7v-139.072" transform="translate(6255.691 -22132.016)" fill="none" stroke="#e5e7eb" stroke-width="1"/><path d="M96.313,11057.7v-139.072" transform="translate(6278.869 -22132.016)" fill="none" stroke="#e5e7eb" stroke-width="1"/><path d="M96.313,11057.7v-139.072" transform="translate(6302.05 -22132.016)" fill="none" stroke="#e5e7eb" stroke-width="1"/><path d="M96.313,11057.7v-139.072" transform="translate(6325.228 -22132.016)" fill="none" stroke="#e5e7eb" stroke-width="1"/><path d="M96.313,11057.7v-139.072" transform="translate(6348.405 -22132.016)" fill="none" stroke="#e5e7eb" stroke-width="1"/><path d="M96.313,11057.7v-139.072" transform="translate(6371.584 -22132.016)" fill="none" stroke="#e5e7eb" stroke-width="1"/><path d="M96.313,11057.7v-139.072" transform="translate(6394.764 -22132.016)" fill="none" stroke="#e5e7eb" stroke-width="1"/><path d="M96.313,11057.7v-139.072" transform="translate(6417.942 -22132.016)" fill="none" stroke="#e5e7eb" stroke-width="1"/><path d="M96.313,11057.7v-139.072" transform="translate(6441.122 -22132.016)" fill="none" stroke="#e5e7eb" stroke-width="1"/><path d="M96.313,11057.7v-139.072" transform="translate(6464.301 -22132.016)" fill="none" stroke="#e5e7eb" stroke-width="1"/><path d="M96.313,11057.7v-139.072" transform="translate(6487.479 -22132.016)" fill="none" stroke="#e5e7eb" stroke-width="1"/><path d="M96.313,11057.7v-139.072" transform="translate(6510.657 -22132.016)" fill="none" stroke="#e5e7eb" stroke-width="1"/><text transform="translate(6289.051 -11072.93)" fill="#404756" font-size="8" font-family="Poppins-Regular, Poppins"><tspan x="0" y="0">0</tspan></text><text transform="translate(6289.051 -11092.277)" fill="#404756" font-size="7" font-family="Poppins-Regular, Poppins"><tspan x="0" y="0">1</tspan></text><text transform="translate(6289.051 -11108.697)" fill="#404756" font-size="7" font-family="Poppins-Regular, Poppins"><tspan x="0" y="0">2</tspan></text><text transform="translate(6289.051 -11126.082)" fill="#404756" font-size="7" font-family="Poppins-Regular, Poppins"><tspan x="0" y="0">3</tspan></text><text transform="translate(6289.051 -11142.465)" fill="#404756" font-size="8" font-family="Poppins-Regular, Poppins"><tspan x="0" y="0">4</tspan></text><text transform="translate(6289.051 -11159.85)" fill="#404756" font-size="8" font-family="Poppins-Regular, Poppins"><tspan x="0" y="0">5</tspan></text><text transform="translate(6289.051 -11177.232)" fill="#404756" font-size="8" font-family="Poppins-Regular, Poppins"><tspan x="0" y="0">6</tspan></text><text transform="translate(6289.051 -11194.619)" fill="#404756" font-size="8" font-family="Poppins-Regular, Poppins"><tspan x="0" y="0">9</tspan></text><text transform="translate(6289.051 -11212)" fill="#404756" font-size="8" font-family="Poppins-Regular, Poppins"><tspan x="0" y="0">8</tspan></text><text transform="translate(6320.625 -11061.146) rotate(-50)" fill="#404756" font-size="8" font-family="Poppins-Regular, Poppins"><tspan x="-48.872" y="0">-0.50- -0.45</tspan></text><text transform="translate(6343.89 -11061.146) rotate(-50)" fill="#404756" font-size="8" font-family="Poppins-Regular, Poppins"><tspan x="-48.872" y="0">-0.50- -0.45</tspan></text><text transform="translate(6369.422 -11061.146) rotate(-50)" fill="#404756" font-size="8" font-family="Poppins-Regular, Poppins"><tspan x="-48.872" y="0">-0.50- -0.45</tspan></text><text transform="translate(6390.248 -11061.146) rotate(-50)" fill="#404756" font-size="8" font-family="Poppins-Regular, Poppins"><tspan x="-48.872" y="0">-0.50- -0.45</tspan></text><text transform="translate(6413.427 -11061.146) rotate(-50)" fill="#404756" font-size="8" font-family="Poppins-Regular, Poppins"><tspan x="-48.872" y="0">-0.50- -0.45</tspan></text><text transform="translate(6436.606 -11061.146) rotate(-50)" fill="#404756" font-size="8" font-family="Poppins-Regular, Poppins"><tspan x="-48.872" y="0">-0.50- -0.45</tspan></text><text transform="translate(6459.785 -11061.146) rotate(-50)" fill="#404756" font-size="8" font-family="Poppins-Regular, Poppins"><tspan x="-48.872" y="0">-0.50- -0.45</tspan></text><text transform="translate(6482.963 -11061.146) rotate(-50)" fill="#404756" font-size="8" font-family="Poppins-Regular, Poppins"><tspan x="-48.872" y="0">-0.50- -0.45</tspan></text><text transform="translate(6506.141 -11061.146) rotate(-50)" fill="#404756" font-size="8" font-family="Poppins-Regular, Poppins"><tspan x="-48.872" y="0">-0.50- -0.45</tspan></text><text transform="translate(6529.321 -11061.146) rotate(-50)" fill="#404756" font-size="8" font-family="Poppins-Regular, Poppins"><tspan x="-48.872" y="0">-0.50- -0.45</tspan></text><text transform="translate(6552.499 -11061.146) rotate(-50)" fill="#404756" font-size="8" font-family="Poppins-Regular, Poppins"><tspan x="-48.872" y="0">-0.50- -0.45</tspan></text><text transform="translate(6575.68 -11061.146) rotate(-50)" fill="#404756" font-size="8" font-family="Poppins-Regular, Poppins"><tspan x="-48.872" y="0">-0.50- -0.45</tspan></text><text transform="translate(6601.207 -11061.146) rotate(-50)" fill="#404756" font-size="8" font-family="Poppins-Regular, Poppins"><tspan x="-48.872" y="0">-0.50- -0.45</tspan></text><rect width="23.179" height="52.152" transform="translate(6305.465 -11126.398)" fill="#b18dda"/><rect width="23.179" height="86.92" transform="translate(6351.823 -11161.166)" fill="#b18dda"/><rect width="23.179" height="104.304" transform="translate(6375.001 -11178.549)" fill="#b18dda"/><rect width="23.179" height="121.689" transform="translate(6398.182 -11195.936)" fill="#b18dda"/><rect width="23.179" height="87.819" transform="translate(6421.359 -11162.066)" fill="#b18dda"/><rect width="23.179" height="53.051" transform="translate(6444.537 -11127.299)" fill="#b18dda"/><rect width="23.179" height="17.453" transform="translate(6467.716 -11091.699)" fill="#b18dda"/><rect width="23.179" height="35.667" transform="translate(6490.896 -11109.914)" fill="#b18dda"/><rect width="23.179" height="70.436" transform="translate(6514.074 -11144.682)" fill="#b18dda"/><rect width="23.179" height="35.218" transform="translate(6537.254 -11109.463)" fill="#b18dda"/><rect width="23.179" height="87.819" transform="translate(6560.433 -11162.066)" fill="#b18dda"/><rect width="23.179" height="17.453" transform="translate(6583.61 -11091.699)" fill="#b18dda"/><rect width="23.179" height="34.837" transform="translate(6328.643 -11109.084)" fill="#b18dda"/></g></svg>