<svg xmlns="http://www.w3.org/2000/svg" width="336.643" height="199.599" viewBox="0 0 336.643 199.599"><g transform="translate(-6284.357 11503.832)"><path d="M84.106,11158.881H403.7" transform="translate(6217.067 -22517.199)" fill="none" stroke="#e5e7eb" stroke-width="1"/><path d="M84.106,11158.881H403.7" transform="translate(6217.067 -22534.563)" fill="none" stroke="#e5e7eb" stroke-width="1"/><path d="M84.106,11158.881H403.7" transform="translate(6217.067 -22551.926)" fill="none" stroke="#e5e7eb" stroke-width="1"/><path d="M84.106,11158.881H403.7" transform="translate(6217.067 -22569.293)" fill="none" stroke="#e5e7eb" stroke-width="1"/><path d="M84.106,11158.881H403.7" transform="translate(6217.067 -22586.652)" fill="none" stroke="#e5e7eb" stroke-width="1"/><path d="M84.106,11158.881H403.7" transform="translate(6217.067 -22604.02)" fill="none" stroke="#e5e7eb" stroke-width="1"/><path d="M84.106,11158.881H403.7" transform="translate(6217.067 -22621.379)" fill="none" stroke="#e5e7eb" stroke-width="1"/><path d="M84.106,11158.881H403.7" transform="translate(6217.067 -22638.746)" fill="none" stroke="#e5e7eb" stroke-width="1"/><path d="M84.106,11158.881H403.7" transform="translate(6217.295 -22656.109)" fill="none" stroke="#e5e7eb" stroke-width="1"/><path d="M96.313,11057.539v-138.91" transform="translate(6211.925 -22415.855)" fill="none" stroke="#e5e7eb" stroke-width="1"/><path d="M96.313,11057.539v-138.91" transform="translate(6235.076 -22415.855)" fill="none" stroke="#e5e7eb" stroke-width="1"/><path d="M96.313,11057.539v-138.91" transform="translate(6258.229 -22415.855)" fill="none" stroke="#e5e7eb" stroke-width="1"/><path d="M96.313,11057.539v-138.91" transform="translate(6281.381 -22415.855)" fill="none" stroke="#e5e7eb" stroke-width="1"/><path d="M96.313,11057.539v-138.91" transform="translate(6304.533 -22415.855)" fill="none" stroke="#e5e7eb" stroke-width="1"/><path d="M96.313,11057.539v-138.91" transform="translate(6327.685 -22415.855)" fill="none" stroke="#e5e7eb" stroke-width="1"/><path d="M96.313,11057.539v-138.91" transform="translate(6350.836 -22415.855)" fill="none" stroke="#e5e7eb" stroke-width="1"/><path d="M96.313,11057.539v-138.91" transform="translate(6373.987 -22415.855)" fill="none" stroke="#e5e7eb" stroke-width="1"/><path d="M96.313,11057.539v-138.91" transform="translate(6397.141 -22415.855)" fill="none" stroke="#e5e7eb" stroke-width="1"/><path d="M96.313,11057.539v-138.91" transform="translate(6420.291 -22415.855)" fill="none" stroke="#e5e7eb" stroke-width="1"/><path d="M96.313,11057.539v-138.91" transform="translate(6443.444 -22415.855)" fill="none" stroke="#e5e7eb" stroke-width="1"/><path d="M96.313,11057.539v-138.91" transform="translate(6466.596 -22415.855)" fill="none" stroke="#e5e7eb" stroke-width="1"/><path d="M96.313,11057.539v-138.91" transform="translate(6489.747 -22415.855)" fill="none" stroke="#e5e7eb" stroke-width="1"/><path d="M96.313,11057.539v-138.91" transform="translate(6512.897 -22415.855)" fill="none" stroke="#e5e7eb" stroke-width="1"/><text transform="translate(6291.662 -11356.924)" fill="#404756" font-size="8" font-family="Poppins-Regular, Poppins"><tspan x="0" y="0">0</tspan></text><text transform="translate(6291.662 -11376.25)" fill="#404756" font-size="7" font-family="Poppins-Regular, Poppins"><tspan x="0" y="0">1</tspan></text><text transform="translate(6291.662 -11392.65)" fill="#404756" font-size="7" font-family="Poppins-Regular, Poppins"><tspan x="0" y="0">2</tspan></text><text transform="translate(6291.662 -11410.016)" fill="#404756" font-size="7" font-family="Poppins-Regular, Poppins"><tspan x="0" y="0">3</tspan></text><text transform="translate(6291.662 -11426.379)" fill="#404756" font-size="8" font-family="Poppins-Regular, Poppins"><tspan x="0" y="0">4</tspan></text><text transform="translate(6291.662 -11443.742)" fill="#404756" font-size="8" font-family="Poppins-Regular, Poppins"><tspan x="0" y="0">5</tspan></text><text transform="translate(6291.662 -11461.105)" fill="#404756" font-size="8" font-family="Poppins-Regular, Poppins"><tspan x="0" y="0">6</tspan></text><text transform="translate(6291.662 -11478.471)" fill="#404756" font-size="8" font-family="Poppins-Regular, Poppins"><tspan x="0" y="0">9</tspan></text><text transform="translate(6291.662 -11495.832)" fill="#404756" font-size="8" font-family="Poppins-Regular, Poppins"><tspan x="0" y="0">8</tspan></text><text transform="translate(6323.268 -11345.23) rotate(-50)" fill="#404756" font-size="8" font-family="Poppins-Regular, Poppins"><tspan x="-50.08" y="0">187.65-198.51</tspan></text><text transform="translate(6346.506 -11345.23) rotate(-50)" fill="#404756" font-size="8" font-family="Poppins-Regular, Poppins"><tspan x="-50.08" y="0">187.65-198.51</tspan></text><text transform="translate(6372.007 -11345.23) rotate(-50)" fill="#404756" font-size="8" font-family="Poppins-Regular, Poppins"><tspan x="-50.08" y="0">187.65-198.51</tspan></text><text transform="translate(6392.81 -11345.23) rotate(-50)" fill="#404756" font-size="8" font-family="Poppins-Regular, Poppins"><tspan x="-50.08" y="0">187.65-198.51</tspan></text><text transform="translate(6415.961 -11345.23) rotate(-50)" fill="#404756" font-size="8" font-family="Poppins-Regular, Poppins"><tspan x="-50.08" y="0">187.65-198.51</tspan></text><text transform="translate(6439.114 -11345.23) rotate(-50)" fill="#404756" font-size="8" font-family="Poppins-Regular, Poppins"><tspan x="-50.08" y="0">187.65-198.51</tspan></text><text transform="translate(6462.265 -11345.23) rotate(-50)" fill="#404756" font-size="8" font-family="Poppins-Regular, Poppins"><tspan x="-50.08" y="0">187.65-198.51</tspan></text><text transform="translate(6485.416 -11345.23) rotate(-50)" fill="#404756" font-size="8" font-family="Poppins-Regular, Poppins"><tspan x="-50.08" y="0">187.65-198.51</tspan></text><text transform="translate(6508.567 -11345.23) rotate(-50)" fill="#404756" font-size="8" font-family="Poppins-Regular, Poppins"><tspan x="-50.08" y="0">187.65-198.51</tspan></text><text transform="translate(6531.721 -11345.23) rotate(-50)" fill="#404756" font-size="8" font-family="Poppins-Regular, Poppins"><tspan x="-50.08" y="0">187.65-198.51</tspan></text><text transform="translate(6554.872 -11345.23) rotate(-50)" fill="#404756" font-size="8" font-family="Poppins-Regular, Poppins"><tspan x="-50.08" y="0">187.65-198.51</tspan></text><text transform="translate(6578.024 -11345.23) rotate(-50)" fill="#404756" font-size="8" font-family="Poppins-Regular, Poppins"><tspan x="-50.08" y="0">187.65-198.51</tspan></text><text transform="translate(6603.522 -11345.23) rotate(-50)" fill="#404756" font-size="8" font-family="Poppins-Regular, Poppins"><tspan x="-50.08" y="0">187.65-198.51</tspan></text><rect width="23.152" height="17.364" transform="translate(6308.058 -11375.613)" fill="#6d96e8"/><rect width="23.152" height="52.091" transform="translate(6354.361 -11410.34)" fill="#6d96e8"/><rect width="23.152" height="17.364" transform="translate(6377.513 -11375.613)" fill="#6d96e8"/><rect width="23.152" height="34.727" transform="translate(6400.666 -11392.977)" fill="#6d96e8"/><rect width="23.152" height="69.455" transform="translate(6423.816 -11427.703)" fill="#6d96e8"/><rect width="23.152" height="17.364" transform="translate(6446.968 -11375.613)" fill="#6d96e8"/><rect width="23.152" height="86.819" transform="translate(6470.119 -11445.066)" fill="#6d96e8"/><rect width="23.152" height="104.182" transform="translate(6493.272 -11462.43)" fill="#6d96e8"/><rect width="23.152" height="104.182" transform="translate(6516.423 -11462.43)" fill="#6d96e8"/><rect width="23.152" height="138.91" transform="translate(6539.576 -11497.158)" fill="#6d96e8"/><rect width="23.152" height="121.546" transform="translate(6562.728 -11479.795)" fill="#6d96e8"/><rect width="23.152" height="52.091" transform="translate(6585.879 -11410.34)" fill="#6d96e8"/></g></svg>