<svg xmlns="http://www.w3.org/2000/svg" width="19" height="14.778" viewBox="0 0 19 14.778">
  <g id="Group_22012" data-name="Group 22012" transform="translate(-17505 -13805)">
    <path id="monitor-waveform-thin" d="M16.889,32.528a1.584,1.584,0,0,1,1.583,1.583V44.667a1.584,1.584,0,0,1-1.583,1.583H2.111A1.584,1.584,0,0,1,.528,44.667V34.111a1.584,1.584,0,0,1,1.583-1.583ZM2.111,32A2.113,2.113,0,0,0,0,34.111V44.667a2.113,2.113,0,0,0,2.111,2.111H16.889A2.113,2.113,0,0,0,19,44.667V34.111A2.113,2.113,0,0,0,16.889,32Zm.528,3.167a.529.529,0,0,1,.528-.528H15.833a.529.529,0,0,1,.528.528v8.444a.529.529,0,0,1-.528.528H3.167a.529.529,0,0,1-.528-.528Zm-.528,0v8.444a1.054,1.054,0,0,0,1.056,1.056H15.833a1.054,1.054,0,0,0,1.056-1.056V35.167a1.054,1.054,0,0,0-1.056-1.056H3.167A1.054,1.054,0,0,0,2.111,35.167Z" transform="translate(17505 13773)" fill="#b7b2b7"/>
    <path id="monitor-heart-rate-light" d="M1.111,8.179H4.43l1.079,2.158a.392.392,0,0,0,.354.218.093.093,0,0,0,.027,0,.4.4,0,0,0,.349-.27L7.446,6.66l.416,1.25a.4.4,0,0,0,.376.272H12a.2.2,0,0,0,.2-.2v-.4a.2.2,0,0,0-.2-.2H8.523l-.7-2.106a.413.413,0,0,0-.752,0L5.788,9.127l-.76-1.522a.4.4,0,0,0-.354-.218H1.111Z" transform="translate(17506.527 13804.592)" fill="#ebdab2"/>
  </g>
</svg>
