<svg xmlns="http://www.w3.org/2000/svg" width="19" height="19" viewBox="0 0 19 19"><defs><style>.a{fill:#32374a;}.b{fill:#008ff7;}</style></defs><g transform="translate(-22 -70)"><path class="a" d="M9.5.594A8.906,8.906,0,1,1,.594,9.5,8.906,8.906,0,0,1,9.5.594ZM9.5,19A9.5,9.5,0,1,0,0,9.5,9.5,9.5,0,0,0,9.5,19Z" transform="translate(22 70)"/><path class="b" d="M14.12,5.744,8.684,7.559A1.787,1.787,0,0,0,7.555,8.687L5.744,14.12a1.189,1.189,0,0,0,1.5,1.5l5.437-1.811a1.787,1.787,0,0,0,1.128-1.128l1.811-5.437a1.189,1.189,0,0,0-1.5-1.5Zm.375,1.128-1.811,5.437a.589.589,0,0,1-.375.375L6.873,14.495,8.684,9.058a.589.589,0,0,1,.375-.375l5.437-1.811Zm-3.811,4.7a.891.891,0,1,0-.891-.891A.891.891,0,0,0,10.684,11.574Z" transform="translate(20.816 68.816)"/></g></svg>