<svg xmlns="http://www.w3.org/2000/svg" width="19" height="15.202" viewBox="0 0 19 15.202"><defs><style>.a{fill:#32374a;}.b{fill:#008ff7;}</style></defs><g transform="translate(-17508 -13678)"><path class="a" d="M11.009,32.556a1.11,1.11,0,0,1,1.111,1.111v2.222A1.11,1.11,0,0,1,11.009,37H8.786a1.11,1.11,0,0,1-1.111-1.111V33.667a1.11,1.11,0,0,1,1.111-1.111ZM8.786,32A1.667,1.667,0,0,0,7.12,33.667v2.222a1.667,1.667,0,0,0,1.667,1.667H9.62V39.5H3.786A1.389,1.389,0,0,0,2.4,40.889V42h.556V40.889a.831.831,0,0,1,.833-.833H9.62V42h.556V40.056h5.833a.831.831,0,0,1,.833.833V42H17.4V40.889A1.389,1.389,0,0,0,16.009,39.5H10.175V37.556h.833a1.667,1.667,0,0,0,1.667-1.667V33.667A1.667,1.667,0,0,0,11.009,32Z" transform="translate(17507.602 13646)"/><path class="b" d="M9.4,11H8.45a.949.949,0,0,0-.95.95V14.8a.949.949,0,0,0,.95.95H11.3a.949.949,0,0,0,.95-.95V11.95A.949.949,0,0,0,11.3,11H9.4Zm1.9.95V14.8H8.45V11.95Z" transform="translate(17507.625 13677.452)"/><path class="b" d="M9.4,11H8.45a.949.949,0,0,0-.95.95V14.8a.949.949,0,0,0,.95.95H11.3a.949.949,0,0,0,.95-.95V11.95A.949.949,0,0,0,11.3,11H9.4Zm1.9.95V14.8H8.45V11.95Z" transform="translate(17514.75 13677.452)"/><path class="b" d="M9.4,11H8.45a.949.949,0,0,0-.95.95V14.8a.949.949,0,0,0,.95.95H11.3a.949.949,0,0,0,.95-.95V11.95A.949.949,0,0,0,11.3,11H9.4Zm1.9.95V14.8H8.45V11.95Z" transform="translate(17500.5 13677.452)"/></g></svg>