<svg xmlns="http://www.w3.org/2000/svg" width="13.5" height="18" viewBox="0 0 13.5 18">
  <g id="Group_22017" data-name="Group 22017" transform="translate(-17500.25 -14130)">
    <path id="file-chart-pie-thin" d="M.563,15.75V2.25A1.688,1.688,0,0,1,2.25.563H7.175c.046,0,.091,0,.137.007V4.781A1.406,1.406,0,0,0,8.719,6.188H12.93a.9.9,0,0,1,.007.137V15.75a1.688,1.688,0,0,1-1.687,1.688h-9A1.688,1.688,0,0,1,.563,15.75ZM12.607,5.53a1.023,1.023,0,0,1,.084.095H8.719a.842.842,0,0,1-.844-.844V.805A1.151,1.151,0,0,1,7.97.889ZM2.25,0A2.252,2.252,0,0,0,0,2.25v13.5A2.252,2.252,0,0,0,2.25,18h9a2.252,2.252,0,0,0,2.25-2.25V6.325A1.688,1.688,0,0,0,13,5.133L8.371.5A1.688,1.688,0,0,0,7.179,0Z" transform="translate(17500.25 14130)" fill="#b7b2b7"/>
    <path id="file-chart-pie-light" d="M7,7.5V12h4.5A4.5,4.5,0,0,0,7,7.5ZM8.125,8.818a3.4,3.4,0,0,1,2.057,2.057H8.125ZM6.437,15.375a2.813,2.813,0,0,1-.562-5.569V8.681a3.929,3.929,0,1,0,4.444,4.444H9.193A2.814,2.814,0,0,1,6.437,15.375Z" transform="translate(17500 14129.391)" fill="#ebdab2"/>
  </g>
</svg>
