<svg xmlns="http://www.w3.org/2000/svg" width="16.9" height="18" viewBox="0 0 16.9 18">
  <g id="Group_22020" data-name="Group 22020" transform="translate(-17498.55 -14305.998)">
    <path id="gear-thin" d="M22.488,1a.561.561,0,0,1,.548-.439h2.025A.561.561,0,0,1,25.609,1l.453,2.007a.281.281,0,0,0,.176.2,6.166,6.166,0,0,1,1.726,1,.279.279,0,0,0,.26.049l1.968-.612a.562.562,0,0,1,.654.257l1.016,1.757a.566.566,0,0,1-.105.7l-1.515,1.4a.282.282,0,0,0-.088.253,6.2,6.2,0,0,1,0,2,.289.289,0,0,0,.088.253l1.515,1.4a.566.566,0,0,1,.105.7l-1.016,1.743a.562.562,0,0,1-.654.257l-1.968-.612a.276.276,0,0,0-.26.049,6.253,6.253,0,0,1-1.726,1,.288.288,0,0,0-.176.2l-.453,2.007a.561.561,0,0,1-.548.439H23.036a.561.561,0,0,1-.548-.439l-.453-2.007a.281.281,0,0,0-.176-.2,6.166,6.166,0,0,1-1.726-1,.279.279,0,0,0-.26-.049l-1.968.612a.562.562,0,0,1-.654-.257l-1.016-1.757a.566.566,0,0,1,.105-.7l1.515-1.4a.282.282,0,0,0,.088-.253A6.085,6.085,0,0,1,17.862,9a6.237,6.237,0,0,1,.081-1,.289.289,0,0,0-.088-.253l-1.515-1.4a.566.566,0,0,1-.105-.7L17.251,3.9a.562.562,0,0,1,.654-.257l.084-.267-.084.267,1.968.612a.276.276,0,0,0,.26-.049,6.166,6.166,0,0,1,1.726-1,.288.288,0,0,0,.176-.2Zm.548-1a1.124,1.124,0,0,0-1.1.879l-.422,1.863a6.749,6.749,0,0,0-1.62.938L18.07,3.111a1.123,1.123,0,0,0-1.308.51L15.75,5.378a1.122,1.122,0,0,0,.211,1.388l1.4,1.3a6.94,6.94,0,0,0,0,1.87l-1.4,1.3.19.207-.19-.207a1.123,1.123,0,0,0-.211,1.388l1.012,1.757a1.125,1.125,0,0,0,1.308.513l1.824-.569a6.887,6.887,0,0,0,1.62.938l.422,1.863a1.127,1.127,0,0,0,1.1.879h2.025a1.124,1.124,0,0,0,1.1-.879l.422-1.863a6.634,6.634,0,0,0,1.62-.938l1.824.569a1.125,1.125,0,0,0,1.308-.513l1.019-1.757a1.122,1.122,0,0,0-.211-1.388l-1.4-1.3a6.94,6.94,0,0,0,0-1.87l1.4-1.3a1.123,1.123,0,0,0,.211-1.388L31.335,3.62a1.125,1.125,0,0,0-1.308-.513L28.2,3.677a6.71,6.71,0,0,0-1.624-.935L26.158.879A1.127,1.127,0,0,0,25.061,0Z" transform="translate(17482.951 14305.998)" fill="#b7b2b7"/>
    <path id="cog-light" d="M26.8,14.056a3.761,3.761,0,1,0,3.761,3.761A3.767,3.767,0,0,0,26.8,14.056Zm0,6.268a2.507,2.507,0,1,1,2.507-2.507A2.51,2.51,0,0,1,26.8,20.325Z" transform="translate(17480.195 14297.18)" fill="#ebdab2"/>
  </g>
</svg>
