<svg xmlns="http://www.w3.org/2000/svg" width="18" height="15.75" viewBox="0 0 18 15.75">
  <g id="Group_22014" data-name="Group 22014" transform="translate(-17498 -13955)">
    <path id="chart-line-up-thin" d="M.563,32.281a.281.281,0,0,0-.562,0V45.219A2.53,2.53,0,0,0,2.531,47.75H17.719a.281.281,0,0,0,0-.562H2.531A1.97,1.97,0,0,1,.563,45.219Z" transform="translate(17498 13923)" fill="#b7b2b7"/>
    <path id="chart-line-light" d="M3.831,71.121a.282.282,0,0,0,0,.4l.4.4a.282.282,0,0,0,.4,0l2.556-2.531,2.978,2.978a.558.558,0,0,0,.795,0l3.287-3.287,1.547,1.547a.831.831,0,0,0,.6.253.854.854,0,0,0,.861-.854v-4.2a.572.572,0,0,0-.57-.57h-4.2a.855.855,0,0,0-.6,1.459l1.571,1.571-2.89,2.89L7.582,68.2a.564.564,0,0,0-.795,0L3.831,71.121Zm9.306-4.746h2.988v2.988Z" transform="translate(17497.488 13893.125)" fill="#ebdab2"/>
  </g>
</svg>
