<svg xmlns="http://www.w3.org/2000/svg" width="18" height="18.003" viewBox="0 0 18 18.003"><defs><style>.a{fill:#32374a;}.b{fill:#008ff7;}</style></defs><g transform="translate(-17498 -14196.998)"><path class="a" d="M.744,13.56,5.968,8.336l.4.4L1.145,13.957A2.021,2.021,0,1,0,4,16.816l4.078-4.075a4.047,4.047,0,0,0,.2.591L4.4,17.216A2.585,2.585,0,0,1,.744,13.56ZM17.425,5.6a5.063,5.063,0,0,0-.3-1.719L14.613,6.392a1.123,1.123,0,0,1-.795.33H12.363A1.124,1.124,0,0,1,11.238,5.6V4.142a1.123,1.123,0,0,1,.33-.795L14.082.834A5.074,5.074,0,0,0,8.109,2.848L7.663,2.5A5.633,5.633,0,0,1,14.37.342a.51.51,0,0,1,.151.847L11.966,3.745a.565.565,0,0,0-.165.4V5.6a.564.564,0,0,0,.562.562h1.455a.565.565,0,0,0,.4-.165l2.556-2.556a.509.509,0,0,1,.847.151,5.628,5.628,0,0,1-1.993,6.588l-.4-.4A5.05,5.05,0,0,0,17.425,5.6ZM2.8,14.6a.562.562,0,1,1-.562.562A.562.562,0,0,1,2.8,14.6Z" transform="translate(17498.012 14197.025)"/><path class="b" d="M17.669,13.693,13.3,9.316a2.812,2.812,0,0,0-3.54-.355L6.75,5.955V3.375L2.25,0,0,2.25l3.375,4.5h2.58L8.961,9.755A2.811,2.811,0,0,0,9.32,13.3L13.7,17.672a1.124,1.124,0,0,0,.794.33,1.109,1.109,0,0,0,.794-.33l2.387-2.387a1.13,1.13,0,0,0,0-1.593ZM5.625,5.558v.067H3.937L1.487,2.355l.868-.868,3.269,2.45Zm8.863,11.316L10.114,12.5A1.685,1.685,0,1,1,12.5,10.114l4.377,4.373Z" transform="translate(17498 14196.998)"/></g></svg>